{"title":"Yamaho Yama (2012) Telugu Movie HQ PDVD MPEG - ExclusiveM","uid":7979172,"size":1507217537,"categoryP":"video","categoryS":"movies","magnet":"?xt=urn:btih:a4fb3f9f1ad5bcc119cfbb37475509c0400dc7cf&amp;dn=Yamaho+Yama+%282012%29+Telugu+Movie+HQ+PDVD+MPEG+-+ExclusiveM&amp;tr=udp%3A%2F%2Ftracker.openbittorrent.com%3A80&amp;tr=udp%3A%2F%2Fopen.demonii.com%3A1337&amp;tr=udp%3A%2F%2Ftracker.coppersurfer.tk%3A6969&amp;tr=udp%3A%2F%2Fexodus.desync.com%3A6969","seeders":0,"leechers":1,"uploader":"tykoon123","files":-1,"time":1357121881,"description":"Poster: &lt;a href=&quot;\nhttp://imgr.us/images/qi1h7sbt9d3dg8j1vek.jpg&quot; rel=&quot;nofollow&quot; target=&quot;_NEW&quot;&gt;\nhttp://imgr.us/images/qi1h7sbt9d3dg8j1vek.jpg&lt;/a&gt;\n\n\nInfo:\n\nFormat : MPEG-PS\nFile size : 1 400 MiB\nDuration : 2h 15 min\nOverall bit rate mode : Variable\nOverall bit rate : 1 482 Kbps\n\nVideo\nID : 224 (0xE0)\nFormat : MPEG Video\nFormat version : Version 2\nFormat profile : Main@Main\nFormat settings, BVOP : Yes\nFormat settings, Matrix : Default\nFormat settings, GOP : M=3, N=13\nDuration : 1h 36mn\nBit rate mode : Variable\nBit rate : 1 260 Kbps\nMaximum bit rate : 9 608 Kbps\nWidth : 720 pixels\nHeight : 480 pixels\nDisplay aspect ratio : 16:9\nFrame rate : 29.970 fps\nStandard : NTSC\nColor space : YUV\nChroma subsampling : 4:2:0\nBit depth : 8 bits\nScan type : Progressive\nCompression mode : Lossy\nBits/(Pixel*Frame) : 0.122\nStream size : 871 MiB (85%)\n\nAudio\nID : 189 (0xBD)-128 (0x80)\nFormat : AC-3\nFormat/Info : Audio Coding 3\nMode extension : CM (complete main)\nFormat settings, Endianness : Big\nMuxing mode : DVD-Video\nDuration : 1h 36mn\nBit rate mode : Constant\nBit rate : 192 Kbps\nChannel(s) : 2 channels\nChannel positions : Front: L R\nSampling rate : 48.0 KHz\nBit depth : 16 bits\nCompression mode : Lossy\nStream size : 133 MiB (13%)\n\n\nSCREENS: &lt;a href=&quot;\nhttp://imgr.us/images/g5o625uelna6vgxjcs.png&quot; rel=&quot;nofollow&quot; target=&quot;_NEW&quot;&gt;\nhttp://imgr.us/images/g5o625uelna6vgxjcs.png&lt;/a&gt; &lt;a href=&quot;\nhttp://imgr.us/images/ua9ta1g7xl627719o8r0.png&quot; rel=&quot;nofollow&quot; target=&quot;_NEW&quot;&gt;\nhttp://imgr.us/images/ua9ta1g7xl627719o8r0.png&lt;/a&gt; &lt;a href=&quot;\nhttp://imgr.us/images/kssfev2wjjby1qbx6b.png&quot; rel=&quot;nofollow&quot; target=&quot;_NEW&quot;&gt;\nhttp://imgr.us/images/kssfev2wjjby1qbx6b.png&lt;/a&gt; &lt;a href=&quot;\nhttp://imgr.us/images/9j7j1sl5teb0jmrt4on.png&quot; rel=&quot;nofollow&quot; target=&quot;_NEW&quot;&gt;\nhttp://imgr.us/images/9j7j1sl5teb0jmrt4on.png&lt;/a&gt; &lt;a href=&quot;\nhttp://imgr.us/images/5aua1uom4y11t8li161r.png&quot; rel=&quot;nofollow&quot; target=&quot;_NEW&quot;&gt;\nhttp://imgr.us/images/5aua1uom4y11t8li161r.png&lt;/a&gt; &lt;a href=&quot;\nhttp://imgr.us/images/fv0h37q3oyeuc44nwhpp.png&quot; rel=&quot;nofollow&quot; target=&quot;_NEW&quot;&gt;\nhttp://imgr.us/images/fv0h37q3oyeuc44nwhpp.png&lt;/a&gt;\n\n\n\n\n\n\n\n\n","torrent":{"xt":"urn:btih:a4fb3f9f1ad5bcc119cfbb37475509c0400dc7cf","amp;dn":"Yamaho+Yama+%282012%29+Telugu+Movie+HQ+PDVD+MPEG+-+ExclusiveM","amp;tr":["udp%3A%2F%2Ftracker.openbittorrent.com%3A80","udp%3A%2F%2Fopen.demonii.com%3A1337","udp%3A%2F%2Ftracker.coppersurfer.tk%3A6969","udp%3A%2F%2Fexodus.desync.com%3A6969"],"infoHash":"a4fb3f9f1ad5bcc119cfbb37475509c0400dc7cf","infoHashBuffer":{"type":"Buffer","data":[164,251,63,159,26,213,188,193,25,207,187,55,71,85,9,192,64,13,199,207]},"announce":[],"urlList":[]}}